<?xml version="1.0" encoding="utf-8"?>
<!-- Generator: Adobe Illustrator 17.0.0, SVG Export Plug-In . SVG Version: 6.00 Build 0)  -->
<!DOCTYPE svg PUBLIC "-//W3C//DTD SVG 1.1//EN" "http://www.w3.org/Graphics/SVG/1.1/DTD/svg11.dtd">
<svg version="1.1" id="Layer_1" xmlns="http://www.w3.org/2000/svg" xmlns:xlink="http://www.w3.org/1999/xlink" x="0px" y="0px"
	 width="20px" height="20px" viewBox="0 0 20 20" enable-background="new 0 0 20 20" xml:space="preserve">
<g>
	<polygon fill="#FFFFFF" points="11.936,5.421 14.364,5.421 10,1.001 5.637,5.421 8.064,5.421 5.512,12.151 1.337,12.151 10,19.034 
		18.663,12.151 14.489,12.151 	"/>
	<path d="M12.274,5.654h2.647L10,0.669L5.079,5.654h2.647l-2.376,6.263H0.669L10,19.331l9.331-7.414H14.65L12.274,5.654z M10,19.034
		l-8.663-6.883h4.174l2.553-6.73H5.637L10,1.001l4.363,4.42h-2.428l2.553,6.73h4.174L10,19.034z"/>
</g>
</svg>
