<?xml version="1.0" encoding="utf-8"?>
<!-- Generator: Adobe Illustrator 17.0.0, SVG Export Plug-In . SVG Version: 6.00 Build 0)  -->
<!DOCTYPE svg PUBLIC "-//W3C//DTD SVG 1.1//EN" "http://www.w3.org/Graphics/SVG/1.1/DTD/svg11.dtd">
<svg version="1.1" id="Layer_1" xmlns="http://www.w3.org/2000/svg" xmlns:xlink="http://www.w3.org/1999/xlink" x="0px" y="0px"
	 width="20px" height="20px" viewBox="0 0 20 20" enable-background="new 0 0 20 20" xml:space="preserve">
<g>
	<polygon fill="#FFFFFF" points="11.02,4.718 13.223,4.718 10,0.761 6.777,4.718 9.083,4.718 9.083,8.98 4.718,8.98 4.718,6.777 
		0.761,10 4.718,13.223 4.718,10.917 8.98,10.917 8.98,15.282 6.777,15.282 10,19.239 13.223,15.282 10.917,15.282 10.917,11.02 
		15.281,11.02 15.281,13.223 19.238,10 15.281,6.777 15.281,9.083 11.02,9.083 	"/>
	<polygon fill="none" points="15.041,13.729 19.619,10 15.041,6.271 15.041,8.843 11.26,8.843 11.26,4.959 13.729,4.959 10,0.381 
		6.271,4.959 8.843,4.959 8.843,8.74 4.959,8.74 4.959,6.271 0.381,10 4.959,13.729 4.959,11.157 8.74,11.157 8.74,15.041 
		6.271,15.041 10,19.619 13.729,15.041 11.157,15.041 11.157,11.26 15.041,11.26 	"/>
	<path d="M11.26,4.959h2.469L10,0.381L6.271,4.959h2.572V8.74H4.959V6.271L0.381,10l4.578,3.729v-2.572H8.74v3.884H6.271L10,19.619
		l3.729-4.578h-2.572V11.26h3.884v2.469L19.619,10l-4.578-3.729v2.572H11.26V4.959z M15.281,9.083V6.777L19.238,10l-3.957,3.223
		V11.02h-4.364v4.262h2.306L10,19.239l-3.223-3.957H8.98v-4.365H4.718v2.307L0.761,10l3.957-3.223V8.98h4.365V4.718H6.777L10,0.761
		l3.223,3.957H11.02v4.365H15.281z"/>
</g>
</svg>
