<?xml version="1.0" encoding="utf-8"?>
<!-- Generator: Adobe Illustrator 17.0.0, SVG Export Plug-In . SVG Version: 6.00 Build 0)  -->
<!DOCTYPE svg PUBLIC "-//W3C//DTD SVG 1.1//EN" "http://www.w3.org/Graphics/SVG/1.1/DTD/svg11.dtd">
<svg version="1.1" id="Layer_1" xmlns="http://www.w3.org/2000/svg" xmlns:xlink="http://www.w3.org/1999/xlink" x="0px" y="0px"
	 width="20px" height="20px" viewBox="0 0 20 20" enable-background="new 0 0 20 20" xml:space="preserve">
<g>
	<path d="M16.802,7.599L16.32,7.117l2.174-2.174c0.949-0.949,0.949-2.488,0-3.437s-2.488-0.949-3.437,0L12.883,3.68l-0.482-0.482
		c-0.28-0.28-0.735-0.28-1.015,0c-0.28,0.28-0.28,0.735,0,1.015l0.672,0.672l-9.699,9.699c-0.125,0.125-0.207,0.361-0.187,0.538
		l0.139,1.186c0.017,0.147-0.056,0.359-0.161,0.464l-1.132,1.132c-0.144,0.144-0.223,0.335-0.223,0.539
		c0,0.204,0.079,0.396,0.223,0.539c0.144,0.144,0.335,0.223,0.539,0.223c0.204,0,0.396-0.079,0.539-0.223l1.132-1.132
		c0.106-0.106,0.294-0.164,0.417-0.164l1.234,0.141c0.018,0.002,0.037,0.003,0.056,0.003c0.169,0,0.372-0.08,0.482-0.19l9.699-9.699
		l0.672,0.672c0.28,0.28,0.735,0.28,1.015,0C17.082,8.334,17.082,7.879,16.802,7.599z"/>
	<path fill="#FFFFFF" d="M12.297,5.125l-9.491,9.491c-0.051,0.051-0.098,0.186-0.09,0.258l0.144,1.229l-0.003,0
		c0.014,0.243-0.091,0.531-0.26,0.7l-1.341,1.341c-0.165,0.165-0.165,0.434,0,0.599c0.165,0.165,0.434,0.165,0.599,0l1.341-1.341
		c0.169-0.169,0.457-0.274,0.7-0.26l0-0.003l1.229,0.144c0.072,0.009,0.207-0.038,0.258-0.09l9.491-9.491L12.297,5.125z"/>
</g>
</svg>
