<?xml version="1.0" encoding="UTF-8" standalone="no"?>
<!DOCTYPE svg PUBLIC "-//W3C//DTD SVG 1.1//EN" "http://www.w3.org/Graphics/SVG/1.1/DTD/svg11.dtd">
<svg version="1.1" xmlns="http://www.w3.org/2000/svg" xmlns:xlink="http://www.w3.org/1999/xlink" preserveAspectRatio="xMidYMid meet" viewBox="0 0 20 20" width="20" height="20"><defs><path d="M12.43 1L12.44 1L12.45 1L12.46 1L12.47 1.01L12.48 1.01L12.5 1.01L12.51 1.02L12.52 1.02L12.53 1.03L12.54 1.03L12.55 1.04L12.56 1.04L12.57 1.05L12.58 1.06L12.59 1.06L12.6 1.07L12.61 1.08L12.61 1.09L12.62 1.09L12.63 1.1L12.64 1.11L12.64 1.12L12.65 1.13L12.66 1.14L12.66 1.15L12.67 1.16L12.67 1.17L12.68 1.18L12.68 1.19L12.69 1.2L12.69 1.21L12.69 1.23L12.7 1.24L12.7 1.25L12.7 1.26L12.7 1.27L12.7 1.29L12.7 1.3L12.7 7.3L18.7 7.3L18.71 7.3L18.73 7.3L18.74 7.3L18.75 7.3L18.76 7.3L18.77 7.31L18.78 7.31L18.8 7.31L18.81 7.32L18.82 7.32L18.83 7.33L18.84 7.33L18.85 7.34L18.86 7.34L18.87 7.35L18.88 7.36L18.89 7.36L18.9 7.37L18.91 7.38L18.91 7.39L18.92 7.39L18.93 7.4L18.94 7.41L18.94 7.42L18.95 7.43L18.96 7.44L18.96 7.45L18.97 7.46L18.97 7.47L18.98 7.48L18.98 7.49L18.99 7.5L18.99 7.51L18.99 7.53L19 7.54L19 7.55L19 7.56L19 7.57L19 7.59L19 7.6L19 12.4L19 12.41L19 12.42L19 12.43L19 12.45L19 12.46L18.99 12.47L18.99 12.48L18.99 12.49L18.98 12.5L18.98 12.51L18.97 12.53L18.97 12.54L18.96 12.55L18.96 12.56L18.95 12.57L18.94 12.57L18.94 12.58L18.93 12.59L18.92 12.6L18.91 12.61L18.91 12.62L18.9 12.63L18.89 12.63L18.88 12.64L18.87 12.65L18.86 12.65L18.85 12.66L18.84 12.66L18.83 12.67L18.82 12.67L18.81 12.68L18.8 12.68L18.78 12.69L18.77 12.69L18.76 12.69L18.75 12.69L18.74 12.7L18.73 12.7L18.71 12.7L18.7 12.7L12.7 12.7L12.7 18.7L12.7 18.71L12.7 18.72L12.7 18.73L12.7 18.75L12.7 18.76L12.69 18.77L12.69 18.78L12.69 18.79L12.68 18.8L12.68 18.81L12.67 18.83L12.67 18.84L12.66 18.85L12.66 18.86L12.65 18.87L12.64 18.87L12.64 18.88L12.63 18.89L12.62 18.9L12.61 18.91L12.61 18.92L12.6 18.93L12.59 18.93L12.58 18.94L12.57 18.95L12.56 18.95L12.55 18.96L12.54 18.96L12.53 18.97L12.52 18.97L12.51 18.98L12.5 18.98L12.48 18.99L12.47 18.99L12.46 18.99L12.45 18.99L12.44 19L12.43 19L12.41 19L12.4 19L7.6 19L7.59 19L7.58 19L7.56 19L7.55 18.99L7.54 18.99L7.53 18.99L7.52 18.99L7.51 18.98L7.5 18.98L7.48 18.97L7.47 18.97L7.46 18.96L7.45 18.96L7.44 18.95L7.43 18.95L7.42 18.94L7.42 18.93L7.41 18.93L7.4 18.92L7.39 18.91L7.38 18.9L7.37 18.89L7.37 18.88L7.36 18.87L7.35 18.87L7.35 18.86L7.34 18.85L7.33 18.84L7.33 18.83L7.32 18.81L7.32 18.8L7.32 18.79L7.31 18.78L7.31 18.77L7.31 18.76L7.31 18.75L7.3 18.73L7.3 18.72L7.3 18.71L7.3 18.7L7.3 12.7L1.3 12.7L1.29 12.7L1.28 12.7L1.26 12.7L1.25 12.69L1.24 12.69L1.23 12.69L1.22 12.69L1.21 12.68L1.2 12.68L1.18 12.67L1.17 12.67L1.16 12.66L1.15 12.66L1.14 12.65L1.13 12.65L1.12 12.64L1.12 12.63L1.11 12.63L1.1 12.62L1.09 12.61L1.08 12.6L1.07 12.59L1.07 12.58L1.06 12.57L1.05 12.57L1.05 12.56L1.04 12.55L1.03 12.54L1.03 12.53L1.02 12.51L1.02 12.5L1.02 12.49L1.01 12.48L1.01 12.47L1.01 12.46L1.01 12.45L1 12.43L1 12.42L1 12.41L1 12.4L1 7.6L1 7.59L1 7.57L1 7.56L1.01 7.55L1.01 7.54L1.01 7.53L1.01 7.51L1.02 7.5L1.02 7.49L1.02 7.48L1.03 7.47L1.03 7.46L1.04 7.45L1.05 7.44L1.05 7.43L1.06 7.42L1.07 7.41L1.07 7.4L1.08 7.39L1.09 7.39L1.1 7.38L1.11 7.37L1.12 7.36L1.12 7.36L1.13 7.35L1.14 7.34L1.15 7.34L1.16 7.33L1.17 7.33L1.18 7.32L1.2 7.32L1.21 7.31L1.22 7.31L1.23 7.31L1.24 7.3L1.25 7.3L1.26 7.3L1.28 7.3L1.29 7.3L1.3 7.3L7.3 7.3L7.3 1.3L7.3 1.29L7.3 1.27L7.3 1.26L7.31 1.25L7.31 1.24L7.31 1.23L7.31 1.21L7.32 1.2L7.32 1.19L7.32 1.18L7.33 1.17L7.33 1.16L7.34 1.15L7.35 1.14L7.35 1.13L7.36 1.12L7.37 1.11L7.37 1.1L7.38 1.09L7.39 1.09L7.4 1.08L7.41 1.07L7.42 1.06L7.42 1.06L7.43 1.05L7.44 1.04L7.45 1.04L7.46 1.03L7.47 1.03L7.48 1.02L7.5 1.02L7.51 1.01L7.52 1.01L7.53 1.01L7.54 1L7.55 1L7.56 1L7.58 1L7.59 1L7.6 1L12.4 1L12.41 1L12.43 1Z" id="dn2yjRqpe"></path></defs><g><g><g><use xlink:href="#dn2yjRqpe" opacity="1" fill="#ffffff" fill-opacity="1"></use></g></g></g></svg>